<svg id="Layer_4" data-name="Layer 4" xmlns="http://www.w3.org/2000/svg" viewBox="0 0 1928 1674"><defs><style>.cls-1,.cls-3{fill:#fff;}.cls-2{fill:none;stroke-width:6px;}.cls-2,.cls-3{stroke:#fff;stroke-miterlimit:10;}</style></defs><title>plane</title><path class="cls-1" d="M705.26,1050.72,607.89,1143s-33.25,26.71-85.5,0S312.22,1039.8,312.22,1039.8L1.11,1571.48s-68.87,203.94,194.74,102S1853.5,959.68,1853.5,959.68,1920,918.41,1920,865H1323.91s-108.06,205.15-618.65,185.72" transform="translate(8 -28)"/><path class="cls-1" d="M704.26,679.28,606.89,587s-33.25-26.71-85.5,0S311.22,690.2,311.22,690.2L.11,158.52s-68.87-203.94,194.74-102S1852.5,770.32,1852.5,770.32,1919,811.59,1919,865H1322.91S1214.85,659.85,704.26,679.28" transform="translate(8 -28)"/><ellipse class="cls-2" cx="941.25" cy="835.79" rx="35.62" ry="36.42"/><ellipse class="cls-1" cx="826.06" cy="837" rx="28.5" ry="29.13"/><ellipse class="cls-1" cx="1046.93" cy="837" rx="28.5" ry="29.13"/><path class="cls-3" d="M841.2,848s41,2.42,57.61-9.72v51l-57-7.29-.61-34" transform="translate(8 -28)"/><path class="cls-3" d="M1021.73,845.58s-41,2.43-57.61-9.71v51l57-7.28.61-34" transform="translate(8 -28)"/><ellipse class="cls-1" cx="940.06" cy="837" rx="16.62" ry="16.99"/></svg>